# xmcd
#
# Track frame offsets:
#	150
#	19725
#	37612
#	56810
#	77735
#	96635
#	119357
#	138332
#	159107
#	173910
#	193185
#	212167
#	230382
#	249437
#
# Disc length: 3599 seconds
#
# Revision: 2
# Processed by: cddbd v1.4PL0 Copyright (c) Steve Scherf et al.
# Submitted via: dBpowerAMP V4.0
#
DISCID=b70e0d0e
DTITLE=Eros Ramazzotti - En ciertos momentos
DYEAR=1900
DGENRE=Opera
TTITLE0=Mi vida es un absurdo
TTITLE1=Ok, ya voy
TTITLE2=La luce buona delle stelle
TTITLE3=El juego de la no verdad
TTITLE4=Fantastico amor
TTITLE5=Chao papa
TTITLE6=Las cosas que he visto
TTITLE7=Dialogo
TTITLE8=Ojos de esperanza
TTITLE9=Mientras el cuerpo resista
TTITLE10=Una historia importante
TTITLE11=Ahora tu
TTITLE12=Un nuovo amore
TTITLE13=Emociones, cuantas emociones
EXTD=
EXTT0=
EXTT1=
EXTT2=
EXTT3=
EXTT4=
EXTT5=
EXTT6=
EXTT7=
EXTT8=
EXTT9=
EXTT10=
EXTT11=
EXTT12=
EXTT13=
PLAYORDER=
